<?xml version="1.0" encoding="UTF-8"?>
<svg xmlns="http://www.w3.org/2000/svg"
    xmlns:latexdraw="http://latexdraw.sourceforge.net/namespaces/latexdraw"
    version="1.1" baseProfile="full">
    <defs>
        <pattern latexdraw:type="vlines"
            latexdraw:rotationAngle="0.7853981633974483"
            latexdraw:size="7.05555534362793"
            patternUnits="userSpaceOnUse" id="pattern2854" x="0" y="0"
            width="649" height="340">
            <rect fill="white" stroke="none" width="649" height="340"/>
            <g stroke="black" stroke-width="2.0" stroke-dasharray="none">
                <path d="M 160.0 332.8064891817788 L 172.80648918177877 320.0 M 160.0 345.61297836355754 L 185.61297836355754 320.0 M 160.0 358.4194675453363 L 198.41946754533632 320.0 M 160.0 371.2259567271151 L 211.2259567271151 320.0 M 160.0 384.03244590889386 L 224.03244590889386 320.0 M 160.0 396.83893509067263 L 236.83893509067263 320.0 M 160.0 409.6454242724514 L 249.6454242724514 320.0 M 160.0 422.4519134542302 L 262.4519134542302 320.0 M 160.0 435.25840263600895 L 275.25840263600895 320.0 M 160.0 448.0648918177877 L 288.0648918177877 320.0 M 160.0 460.8713809995665 L 300.8713809995665 320.0 M 160.0 473.67787018134527 L 313.67787018134527 320.0 M 160.0 486.48435936312404 L 326.48435936312404 320.0 M 160.0 499.2908485449028 L 339.2908485449028 320.0 M 160.0 512.0973377266816 L 352.0973377266816 320.0 M 160.0 524.9038269084604 L 364.90382690846036 320.0 M 160.0 537.7103160902391 L 377.71031609023913 320.0 M 160.0 550.5168052720178 L 390.5168052720179 320.0 M 160.0 563.3232944537965 L 403.3232944537967 320.0 M 160.0 576.1297836355752 L 416.12978363557545 320.0 M 160.0 588.9362728173539 L 428.9362728173542 320.0 M 160.0 601.7427619991327 L 441.742761999133 320.0 M 160.0 614.5492511809114 L 454.54925118091177 320.0 M 160.0 627.3557403626901 L 467.35574036269054 320.0 M 160.0 640.1622295444688 L 480.1622295444693 320.0 M 160.0 652.9687187262475 L 492.9687187262481 320.0 M 160.0 665.7752079080262 L 505.77520790802686 320.0 M 160.0 678.581697089805 L 518.5816970898056 320.0 M 160.0 691.3881862715837 L 531.3881862715843 320.0 M 160.0 704.1946754533624 L 544.1946754533631 320.0 M 160.0 717.0011646351411 L 557.0011646351418 320.0 M 160.0 729.8076538169198 L 569.8076538169205 320.0 M 160.0 742.6141429986985 L 582.6141429986992 320.0 M 160.0 755.4206321804772 L 595.4206321804779 320.0 M 160.0 768.227121362256 L 608.2271213622566 320.0 M 160.0 781.0336105440347 L 621.0336105440354 320.0 M 160.0 793.8400997258134 L 633.8400997258141 320.0 M 160.0 806.6465889075921 L 646.6465889075928 320.0 M 160.0 819.4530780893708 L 659.4530780893715 320.0 M 160.0 832.2595672711495 L 672.2595672711502 320.0 M 160.0 845.0660564529283 L 685.0660564529289 320.0 M 160.0 857.872545634707 L 697.8725456347076 320.0 M 160.0 870.6790348164857 L 710.6790348164864 320.0 M 160.0 883.4855239982644 L 723.4855239982651 320.0 M 160.0 896.2920131800431 L 736.2920131800438 320.0 M 160.0 909.0985023618218 L 749.0985023618225 320.0 M 160.0 921.9049915436005 L 761.9049915436012 320.0 M 160.0 934.7114807253793 L 774.7114807253799 320.0 M 160.0 947.517969907158 L 787.5179699071587 320.0 M 160.0 960.3244590889367 L 800.3244590889374 320.0 M 160.0 973.1309482707154 L 813.1309482707161 320.0 M 160.0 985.9374374524941 L 825.9374374524948 320.0 M 160.0 998.7439266342728 L 838.7439266342735 320.0 M 160.0 1011.5504158160516 L 851.5504158160522 320.0 M 160.0 1024.3569049978303 L 864.356904997831 320.0 M 160.0 1037.163394179609 L 877.1633941796097 320.0 M 160.0 1049.9698833613877 L 889.9698833613884 320.0 M 160.0 1062.7763725431664 L 902.7763725431671 320.0 M 160.0 1075.5828617249451 L 915.5828617249458 320.0 M 160.0 1088.3893509067238 L 928.3893509067245 320.0 M 160.0 1101.1958400885026 L 941.1958400885032 320.0 M 160.0 1114.0023292702813 L 954.002329270282 320.0 M 160.0 1126.80881845206 L 966.8088184520607 320.0 M 160.0 1139.6153076338387 L 979.6153076338394 320.0 M 160.0 1152.4217968156174 L 992.4217968156181 320.0 "/>
            </g>
        </pattern>
        <marker overflow="visible" orient="auto" id="arrow2-2861">
            <path
                d="M 0.0 0.0 L 6.504166666666667 2.322916666666667 L 3.9025000000000003 0.0 L 6.504166666666667 -2.322916666666667 z "
                latexdraw:arrSizeNum="2.0" fill="black"/>
        </marker>
        <marker overflow="visible" orient="auto" id="arrow2-2865">
            <path
                d="M 0.0 0.0 L 6.504166666666667 2.322916666666667 L 3.9025000000000003 0.0 L 6.504166666666667 -2.322916666666667 z "
                latexdraw:arrSizeNum="2.0" fill="black"/>
        </marker>
        <marker overflow="visible" orient="auto" id="arrow2-2869">
            <path
                d="M 0.0 0.0 L 6.504166666666667 2.322916666666667 L 3.9025000000000003 0.0 L 6.504166666666667 -2.322916666666667 z "
                latexdraw:arrSizeNum="2.0" fill="black"/>
        </marker>
        <marker overflow="visible" orient="auto" id="arrow2-2873">
            <path
                d="M 0.0 0.0 L 6.504166666666667 2.322916666666667 L 3.9025000000000003 0.0 L 6.504166666666667 -2.322916666666667 z "
                latexdraw:arrSizeNum="2.0" fill="black"/>
        </marker>
        <marker overflow="visible" orient="auto" id="arrow2-2879">
            <path
                d="M 0.0 0.0 L 6.504166666666667 2.322916666666667 L 3.9025000000000003 0.0 L 6.504166666666667 -2.322916666666667 z "
                latexdraw:arrSizeNum="2.0" fill="black"/>
        </marker>
        <marker overflow="visible" orient="auto" id="arrow2-2883">
            <path
                d="M 0.0 0.0 L 6.504166666666667 2.322916666666667 L 3.9025000000000003 0.0 L 6.504166666666667 -2.322916666666667 z "
                latexdraw:arrSizeNum="2.0" fill="black"/>
        </marker>
        <marker overflow="visible" orient="auto" id="arrow2-2887">
            <path
                d="M 0.0 0.0 L 6.504166666666667 2.322916666666667 L 3.9025000000000003 0.0 L 6.504166666666667 -2.322916666666667 z "
                latexdraw:arrSizeNum="2.0" fill="black"/>
        </marker>
        <marker overflow="visible" orient="auto" id="arrow2-2891">
            <path
                d="M 0.0 0.0 L 6.504166666666667 2.322916666666667 L 3.9025000000000003 0.0 L 6.504166666666667 -2.322916666666667 z "
                latexdraw:arrSizeNum="2.0" fill="black"/>
        </marker>
        <marker overflow="visible" orient="auto" id="arrow2-2899">
            <path
                d="M 0.0 0.0 L 6.504166666666667 2.322916666666667 L 3.9025000000000003 0.0 L 6.504166666666667 -2.322916666666667 z "
                latexdraw:arrSizeNum="2.0" fill="black"/>
        </marker>
        <marker overflow="visible" orient="auto" id="arrow2-2903">
            <path
                d="M 0.0 0.0 L 6.504166666666667 2.322916666666667 L 3.9025000000000003 0.0 L 6.504166666666667 -2.322916666666667 z "
                latexdraw:arrSizeNum="2.0" fill="black"/>
        </marker>
        <marker overflow="visible" orient="auto" id="arrow2-2907">
            <path
                d="M 0.0 0.0 L 6.504166666666667 2.322916666666667 L 3.9025000000000003 0.0 L 6.504166666666667 -2.322916666666667 z "
                latexdraw:arrSizeNum="2.0" fill="black"/>
        </marker>
        <marker overflow="visible" orient="auto" id="arrow2-2911">
            <path
                d="M 0.0 0.0 L 6.504166666666667 2.322916666666667 L 3.9025000000000003 0.0 L 6.504166666666667 -2.322916666666667 z "
                latexdraw:arrSizeNum="2.0" fill="black"/>
        </marker>
        <marker overflow="visible" orient="auto" id="arrow2-2917">
            <path
                d="M 0.0 0.0 L 6.504166666666667 2.322916666666667 L 3.9025000000000003 0.0 L 6.504166666666667 -2.322916666666667 z "
                latexdraw:arrSizeNum="2.0" fill="black"/>
        </marker>
        <marker overflow="visible" orient="auto" id="arrow2-2921">
            <path
                d="M 0.0 0.0 L 6.504166666666667 2.322916666666667 L 3.9025000000000003 0.0 L 6.504166666666667 -2.322916666666667 z "
                latexdraw:arrSizeNum="2.0" fill="black"/>
        </marker>
        <marker overflow="visible" orient="auto" id="arrow2-2925">
            <path
                d="M 0.0 0.0 L 6.504166666666667 2.322916666666667 L 3.9025000000000003 0.0 L 6.504166666666667 -2.322916666666667 z "
                latexdraw:arrSizeNum="2.0" fill="black"/>
        </marker>
        <marker overflow="visible" orient="auto" id="arrow2-2929">
            <path
                d="M 0.0 0.0 L 6.504166666666667 2.322916666666667 L 3.9025000000000003 0.0 L 6.504166666666667 -2.322916666666667 z "
                latexdraw:arrSizeNum="2.0" fill="black"/>
        </marker>
        <pattern latexdraw:type="hlines"
            latexdraw:rotationAngle="0.7853981633974483"
            latexdraw:size="7.05555534362793"
            patternUnits="userSpaceOnUse" id="pattern2936" x="0" y="0"
            width="240" height="210">
            <rect fill="white" stroke="none" width="240" height="210"/>
            <g stroke="black" stroke-width="0.5" stroke-dasharray="none">
                <path d="M 210.0 199.31483116178086 L 220.68516883821914 210.0 M 210.0 188.62966232356172 L 231.37033767643828 210.0 M 210.0 177.94449348534258 L 242.05550651465742 210.0 M 210.0 167.25932464712344 L 252.74067535287656 210.0 M 210.0 156.5741558089043 L 263.4258441910957 210.0 M 210.0 145.88898697068515 L 274.1110130293148 210.0 M 210.0 135.203818132466 L 284.7961818675339 210.0 M 210.0 124.51864929424688 L 295.481350705753 210.0 M 210.0 113.83348045602776 L 306.16651954397213 210.0 M 210.0 103.14831161780863 L 316.85168838219124 210.0 M 210.0 92.4631427795895 L 327.53685722041035 210.0 M 210.0 81.77797394137038 L 338.22202605862947 210.0 M 210.0 71.09280510315125 L 348.9071948968486 210.0 M 210.0 60.40763626493212 L 359.5923637350677 210.0 M 210.0 49.722467426712996 L 370.2775325732868 210.0 M 210.0 39.03729858849387 L 380.9627014115059 210.0 M 210.0 28.352129750274738 L 391.64787024972503 210.0 M 210.0 17.666960912055607 L 402.33303908794414 210.0 M 210.0 6.981792073836477 L 413.01820792616326 210.0 M 210.0 -3.7033767643826536 L 423.70337676438237 210.0 M 210.0 -14.388545602601784 L 434.3885456026015 210.0 M 210.0 -25.073714440820915 L 445.0737144408206 210.0 M 210.0 -35.75888327904005 L 455.7588832790397 210.0 "/>
            </g>
        </pattern>
        <pattern latexdraw:type="hlines"
            latexdraw:rotationAngle="0.7853981633974483"
            latexdraw:size="7.05555534362793"
            patternUnits="userSpaceOnUse" id="pattern2938" x="0" y="0"
            width="310" height="190">
            <rect fill="white" stroke="none" width="310" height="190"/>
            <g stroke="black" stroke-width="0.5" stroke-dasharray="none">
                <path d="M 280.0 179.31483116178086 L 290.6851688382191 190.0 M 280.0 168.62966232356172 L 301.3703376764382 190.0 M 280.0 157.94449348534258 L 312.05550651465734 190.0 M 280.0 147.25932464712344 L 322.74067535287645 190.0 M 280.0 136.5741558089043 L 333.42584419109556 190.0 M 280.0 125.88898697068517 L 344.1110130293147 190.0 M 280.0 115.20381813246604 L 354.7961818675338 190.0 M 280.0 104.51864929424691 L 365.4813507057529 190.0 M 280.0 93.83348045602779 L 376.166519543972 190.0 M 280.0 83.14831161780866 L 386.8516883821911 190.0 M 280.0 72.46314277958953 L 397.53685722041024 190.0 M 280.0 61.777973941370405 L 408.22202605862935 190.0 M 280.0 51.09280510315128 L 418.90719489684847 190.0 M 280.0 40.40763626493215 L 429.5923637350676 190.0 M 280.0 29.72246742671302 L 440.2775325732867 190.0 M 280.0 19.03729858849389 L 450.9627014115058 190.0 M 280.0 8.35212975027476 L 461.6478702497249 190.0 M 280.0 -2.333039087944371 L 472.33303908794403 190.0 M 280.0 -13.018207926163502 L 483.01820792616314 190.0 M 280.0 -23.703376764382632 L 493.70337676438226 190.0 M 280.0 -34.388545602601766 L 504.38854560260137 190.0 "/>
            </g>
        </pattern>
        <pattern latexdraw:type="hlines"
            latexdraw:rotationAngle="0.7853981633974483"
            latexdraw:size="7.05555534362793"
            patternUnits="userSpaceOnUse" id="pattern2940" x="0" y="0"
            width="300" height="250">
            <rect fill="white" stroke="none" width="300" height="250"/>
            <g stroke="black" stroke-width="0.5" stroke-dasharray="none">
                <path d="M 270.0 239.31483116178086 L 280.6851688382191 250.0 M 270.0 228.62966232356172 L 291.3703376764382 250.0 M 270.0 217.94449348534258 L 302.05550651465734 250.0 M 270.0 207.25932464712344 L 312.74067535287645 250.0 M 270.0 196.5741558089043 L 323.42584419109556 250.0 M 270.0 185.88898697068515 L 334.1110130293147 250.0 M 270.0 175.203818132466 L 344.7961818675338 250.0 M 270.0 164.51864929424687 L 355.4813507057529 250.0 M 270.0 153.83348045602773 L 366.166519543972 250.0 M 270.0 143.1483116178086 L 376.8516883821911 250.0 M 270.0 132.46314277958945 L 387.53685722041024 250.0 M 270.0 121.77797394137032 L 398.22202605862935 250.0 M 270.0 111.09280510315119 L 408.90719489684847 250.0 M 270.0 100.40763626493207 L 419.5923637350676 250.0 M 270.0 89.72246742671294 L 430.2775325732867 250.0 M 270.0 79.03729858849381 L 440.9627014115058 250.0 M 270.0 68.35212975027468 L 451.6478702497249 250.0 M 270.0 57.66696091205556 L 462.33303908794403 250.0 M 270.0 46.98179207383643 L 473.01820792616314 250.0 M 270.0 36.296623235617304 L 483.70337676438226 250.0 M 270.0 25.611454397398173 L 494.38854560260137 250.0 M 270.0 14.926285559179043 L 505.0737144408205 250.0 M 270.0 4.241116720959912 L 515.7588832790397 250.0 M 270.0 -6.4440521172592184 L 526.4440521172588 250.0 M 270.0 -17.12922095547835 L 537.129220955478 250.0 M 270.0 -27.81438979369748 L 547.8143897936972 250.0 M 270.0 -38.499558631916614 L 558.4995586319163 250.0 "/>
            </g>
        </pattern>
        <pattern latexdraw:type="hlines"
            latexdraw:rotationAngle="0.7853981633974483"
            latexdraw:size="7.05555534362793"
            patternUnits="userSpaceOnUse" id="pattern2942" x="0" y="0"
            width="410" height="210">
            <rect fill="white" stroke="none" width="410" height="210"/>
            <g stroke="black" stroke-width="0.5" stroke-dasharray="none">
                <path d="M 380.0 199.31483116178086 L 390.6851688382191 210.0 M 380.0 188.62966232356172 L 401.3703376764382 210.0 M 380.0 177.94449348534258 L 412.05550651465734 210.0 M 380.0 167.25932464712344 L 422.74067535287645 210.0 M 380.0 156.5741558089043 L 433.42584419109556 210.0 M 380.0 145.88898697068515 L 444.1110130293147 210.0 M 380.0 135.203818132466 L 454.7961818675338 210.0 M 380.0 124.51864929424688 L 465.4813507057529 210.0 M 380.0 113.83348045602776 L 476.166519543972 210.0 M 380.0 103.14831161780863 L 486.8516883821911 210.0 M 380.0 92.4631427795895 L 497.53685722041024 210.0 M 380.0 81.77797394137038 L 508.22202605862935 210.0 M 380.0 71.09280510315125 L 518.9071948968485 210.0 M 380.0 60.40763626493212 L 529.5923637350677 210.0 M 380.0 49.722467426712996 L 540.2775325732869 210.0 M 380.0 39.03729858849387 L 550.962701411506 210.0 M 380.0 28.352129750274738 L 561.6478702497252 210.0 M 380.0 17.666960912055607 L 572.3330390879444 210.0 M 380.0 6.981792073836477 L 583.0182079261635 210.0 M 380.0 -3.7033767643826536 L 593.7033767643827 210.0 M 380.0 -14.388545602601784 L 604.3885456026019 210.0 M 380.0 -25.073714440820915 L 615.073714440821 210.0 M 380.0 -35.75888327904005 L 625.7588832790402 210.0 "/>
            </g>
        </pattern>
        <pattern latexdraw:type="hlines"
            latexdraw:rotationAngle="0.7853981633974483"
            latexdraw:size="7.05555534362793"
            patternUnits="userSpaceOnUse" id="pattern2944" x="0" y="0"
            width="370" height="240">
            <rect fill="white" stroke="none" width="370" height="240"/>
            <g stroke="black" stroke-width="0.5" stroke-dasharray="none">
                <path d="M 340.0 229.31483116178086 L 350.6851688382191 240.0 M 340.0 218.62966232356172 L 361.3703376764382 240.0 M 340.0 207.94449348534258 L 372.05550651465734 240.0 M 340.0 197.25932464712344 L 382.74067535287645 240.0 M 340.0 186.5741558089043 L 393.42584419109556 240.0 M 340.0 175.88898697068515 L 404.1110130293147 240.0 M 340.0 165.203818132466 L 414.7961818675338 240.0 M 340.0 154.51864929424687 L 425.4813507057529 240.0 M 340.0 143.83348045602773 L 436.166519543972 240.0 M 340.0 133.1483116178086 L 446.8516883821911 240.0 M 340.0 122.46314277958946 L 457.53685722041024 240.0 M 340.0 111.77797394137033 L 468.22202605862935 240.0 M 340.0 101.0928051031512 L 478.90719489684847 240.0 M 340.0 90.40763626493208 L 489.5923637350676 240.0 M 340.0 79.72246742671295 L 500.2775325732867 240.0 M 340.0 69.03729858849383 L 510.9627014115058 240.0 M 340.0 58.3521297502747 L 521.647870249725 240.0 M 340.0 47.66696091205557 L 532.3330390879441 240.0 M 340.0 36.981792073836445 L 543.0182079261633 240.0 M 340.0 26.296623235617314 L 553.7033767643825 240.0 M 340.0 15.611454397398184 L 564.3885456026017 240.0 M 340.0 4.926285559179053 L 575.0737144408208 240.0 M 340.0 -5.758883279040077 L 585.75888327904 240.0 M 340.0 -16.444052117259208 L 596.4440521172592 240.0 M 340.0 -27.12922095547834 L 607.1292209554783 240.0 M 340.0 -37.81438979369747 L 617.8143897936975 240.0 "/>
            </g>
        </pattern>
        <pattern latexdraw:type="hlines"
            latexdraw:rotationAngle="0.7853981633974483"
            latexdraw:size="7.05555534362793"
            patternUnits="userSpaceOnUse" id="pattern2946" x="0" y="0"
            width="470" height="230">
            <rect fill="white" stroke="none" width="470" height="230"/>
            <g stroke="black" stroke-width="0.5" stroke-dasharray="none">
                <path d="M 440.0 219.31483116178086 L 450.6851688382191 230.0 M 440.0 208.62966232356172 L 461.3703376764382 230.0 M 440.0 197.94449348534258 L 472.05550651465734 230.0 M 440.0 187.25932464712344 L 482.74067535287645 230.0 M 440.0 176.5741558089043 L 493.42584419109556 230.0 M 440.0 165.88898697068515 L 504.1110130293147 230.0 M 440.0 155.203818132466 L 514.7961818675338 230.0 M 440.0 144.51864929424687 L 525.481350705753 230.0 M 440.0 133.83348045602773 L 536.1665195439722 230.0 M 440.0 123.1483116178086 L 546.8516883821914 230.0 M 440.0 112.46314277958948 L 557.5368572204105 230.0 M 440.0 101.77797394137035 L 568.2220260586297 230.0 M 440.0 91.09280510315122 L 578.9071948968489 230.0 M 440.0 80.4076362649321 L 589.592363735068 230.0 M 440.0 69.72246742671297 L 600.2775325732872 230.0 M 440.0 59.03729858849384 L 610.9627014115064 230.0 M 440.0 48.35212975027471 L 621.6478702497255 230.0 M 440.0 37.666960912055586 L 632.3330390879447 230.0 M 440.0 26.981792073836456 L 643.0182079261639 230.0 M 440.0 16.296623235617325 L 653.703376764383 230.0 M 440.0 5.6114543973981945 L 664.3885456026022 230.0 M 440.0 -5.073714440820936 L 675.0737144408214 230.0 M 440.0 -15.758883279040067 L 685.7588832790406 230.0 M 440.0 -26.444052117259197 L 696.4440521172597 230.0 M 440.0 -37.12922095547833 L 707.1292209554789 230.0 "/>
            </g>
        </pattern>
        <pattern latexdraw:type="hlines"
            latexdraw:rotationAngle="0.7853981633974483"
            latexdraw:size="7.05555534362793"
            patternUnits="userSpaceOnUse" id="pattern2948" x="0" y="0"
            width="380" height="160">
            <rect fill="white" stroke="none" width="380" height="160"/>
            <g stroke="black" stroke-width="0.5" stroke-dasharray="none">
                <path d="M 350.0 149.31483116178086 L 360.6851688382191 160.0 M 350.0 138.62966232356172 L 371.3703376764382 160.0 M 350.0 127.94449348534259 L 382.05550651465734 160.0 M 350.0 117.25932464712346 L 392.74067535287645 160.0 M 350.0 106.57415580890434 L 403.42584419109556 160.0 M 350.0 95.88898697068521 L 414.1110130293147 160.0 M 350.0 85.20381813246608 L 424.7961818675338 160.0 M 350.0 74.51864929424696 L 435.4813507057529 160.0 M 350.0 63.83348045602783 L 446.166519543972 160.0 M 350.0 53.1483116178087 L 456.8516883821911 160.0 M 350.0 42.463142779589575 L 467.53685722041024 160.0 M 350.0 31.777973941370444 L 478.22202605862935 160.0 M 350.0 21.092805103151314 L 488.90719489684847 160.0 M 350.0 10.407636264932183 L 499.5923637350676 160.0 M 350.0 -0.2775325732869476 L 510.2775325732867 160.0 M 350.0 -10.962701411506078 L 520.9627014115058 160.0 M 350.0 -21.64787024972521 L 531.647870249725 160.0 M 350.0 -32.33303908794434 L 542.3330390879441 160.0 "/>
            </g>
        </pattern>
        <pattern latexdraw:type="hlines"
            latexdraw:rotationAngle="0.7853981633974483"
            latexdraw:size="7.05555534362793"
            patternUnits="userSpaceOnUse" id="pattern2950" x="0" y="0"
            width="450" height="180">
            <rect fill="white" stroke="none" width="450" height="180"/>
            <g stroke="black" stroke-width="0.5" stroke-dasharray="none">
                <path d="M 420.0 169.31483116178086 L 430.6851688382191 180.0 M 420.0 158.62966232356172 L 441.3703376764382 180.0 M 420.0 147.94449348534258 L 452.05550651465734 180.0 M 420.0 137.25932464712344 L 462.74067535287645 180.0 M 420.0 126.57415580890431 L 473.42584419109556 180.0 M 420.0 115.88898697068518 L 484.1110130293147 180.0 M 420.0 105.20381813246605 L 494.7961818675338 180.0 M 420.0 94.51864929424693 L 505.4813507057529 180.0 M 420.0 83.8334804560278 L 516.1665195439721 180.0 M 420.0 73.14831161780867 L 526.8516883821912 180.0 M 420.0 62.463142779589546 L 537.5368572204104 180.0 M 420.0 51.77797394137042 L 548.2220260586296 180.0 M 420.0 41.09280510315129 L 558.9071948968488 180.0 M 420.0 30.40763626493216 L 569.5923637350679 180.0 M 420.0 19.72246742671303 L 580.2775325732871 180.0 M 420.0 9.0372985884939 L 590.9627014115063 180.0 M 420.0 -1.64787024972523 L 601.6478702497254 180.0 M 420.0 -12.33303908794436 L 612.3330390879446 180.0 M 420.0 -23.01820792616349 L 623.0182079261638 180.0 M 420.0 -33.703376764382625 L 633.7033767643829 180.0 "/>
            </g>
        </pattern>
        <pattern latexdraw:type="hlines"
            latexdraw:rotationAngle="0.7853981633974483"
            latexdraw:size="7.05555534362793"
            patternUnits="userSpaceOnUse" id="pattern2952" x="0" y="0"
            width="610" height="210">
            <rect fill="white" stroke="none" width="610" height="210"/>
            <g stroke="black" stroke-width="0.5" stroke-dasharray="none">
                <path d="M 580.0 199.31483116178086 L 590.6851688382192 210.0 M 580.0 188.62966232356172 L 601.3703376764383 210.0 M 580.0 177.94449348534258 L 612.0555065146575 210.0 M 580.0 167.25932464712344 L 622.7406753528767 210.0 M 580.0 156.5741558089043 L 633.4258441910958 210.0 M 580.0 145.88898697068515 L 644.111013029315 210.0 M 580.0 135.203818132466 L 654.7961818675342 210.0 M 580.0 124.51864929424688 L 665.4813507057534 210.0 M 580.0 113.83348045602776 L 676.1665195439725 210.0 M 580.0 103.14831161780863 L 686.8516883821917 210.0 M 580.0 92.4631427795895 L 697.5368572204109 210.0 M 580.0 81.77797394137038 L 708.22202605863 210.0 M 580.0 71.09280510315125 L 718.9071948968492 210.0 M 580.0 60.40763626493212 L 729.5923637350684 210.0 M 580.0 49.722467426712996 L 740.2775325732875 210.0 M 580.0 39.03729858849387 L 750.9627014115067 210.0 M 580.0 28.352129750274738 L 761.6478702497259 210.0 M 580.0 17.666960912055607 L 772.333039087945 210.0 M 580.0 6.981792073836477 L 783.0182079261642 210.0 M 580.0 -3.7033767643826536 L 793.7033767643834 210.0 M 580.0 -14.388545602601784 L 804.3885456026026 210.0 M 580.0 -25.073714440820915 L 815.0737144408217 210.0 M 580.0 -35.75888327904005 L 825.7588832790409 210.0 "/>
            </g>
        </pattern>
        <pattern latexdraw:type="hlines"
            latexdraw:rotationAngle="0.7853981633974483"
            latexdraw:size="7.05555534362793"
            patternUnits="userSpaceOnUse" id="pattern2954" x="0" y="0"
            width="560" height="200">
            <rect fill="white" stroke="none" width="560" height="200"/>
            <g stroke="black" stroke-width="0.5" stroke-dasharray="none">
                <path d="M 530.0 189.31483116178086 L 540.6851688382192 200.0 M 530.0 178.62966232356172 L 551.3703376764383 200.0 M 530.0 167.94449348534258 L 562.0555065146575 200.0 M 530.0 157.25932464712344 L 572.7406753528767 200.0 M 530.0 146.5741558089043 L 583.4258441910958 200.0 M 530.0 135.88898697068515 L 594.111013029315 200.0 M 530.0 125.20381813246603 L 604.7961818675342 200.0 M 530.0 114.5186492942469 L 615.4813507057534 200.0 M 530.0 103.83348045602777 L 626.1665195439725 200.0 M 530.0 93.14831161780864 L 636.8516883821917 200.0 M 530.0 82.46314277958952 L 647.5368572204109 200.0 M 530.0 71.77797394137039 L 658.22202605863 200.0 M 530.0 61.092805103151264 L 668.9071948968492 200.0 M 530.0 50.40763626493214 L 679.5923637350684 200.0 M 530.0 39.72246742671301 L 690.2775325732875 200.0 M 530.0 29.03729858849388 L 700.9627014115067 200.0 M 530.0 18.35212975027475 L 711.6478702497259 200.0 M 530.0 7.666960912055618 L 722.333039087945 200.0 M 530.0 -3.0182079261635124 L 733.0182079261642 200.0 M 530.0 -13.703376764382643 L 743.7033767643834 200.0 M 530.0 -24.388545602601774 L 754.3885456026026 200.0 M 530.0 -35.07371444082091 L 765.0737144408217 200.0 "/>
            </g>
        </pattern>
        <pattern latexdraw:type="hlines"
            latexdraw:rotationAngle="0.7853981633974483"
            latexdraw:size="7.05555534362793"
            patternUnits="userSpaceOnUse" id="pattern2956" x="0" y="0"
            width="540" height="250">
            <rect fill="white" stroke="none" width="540" height="250"/>
            <g stroke="black" stroke-width="0.5" stroke-dasharray="none">
                <path d="M 510.0 239.31483116178086 L 520.6851688382192 250.0 M 510.0 228.62966232356172 L 531.3703376764383 250.0 M 510.0 217.94449348534258 L 542.0555065146575 250.0 M 510.0 207.25932464712344 L 552.7406753528767 250.0 M 510.0 196.5741558089043 L 563.4258441910958 250.0 M 510.0 185.88898697068515 L 574.111013029315 250.0 M 510.0 175.203818132466 L 584.7961818675342 250.0 M 510.0 164.51864929424687 L 595.4813507057534 250.0 M 510.0 153.83348045602773 L 606.1665195439725 250.0 M 510.0 143.1483116178086 L 616.8516883821917 250.0 M 510.0 132.46314277958945 L 627.5368572204109 250.0 M 510.0 121.77797394137032 L 638.22202605863 250.0 M 510.0 111.09280510315119 L 648.9071948968492 250.0 M 510.0 100.40763626493207 L 659.5923637350684 250.0 M 510.0 89.72246742671294 L 670.2775325732875 250.0 M 510.0 79.03729858849381 L 680.9627014115067 250.0 M 510.0 68.35212975027468 L 691.6478702497259 250.0 M 510.0 57.66696091205556 L 702.333039087945 250.0 M 510.0 46.98179207383643 L 713.0182079261642 250.0 M 510.0 36.296623235617304 L 723.7033767643834 250.0 M 510.0 25.611454397398173 L 734.3885456026026 250.0 M 510.0 14.926285559179043 L 745.0737144408217 250.0 M 510.0 4.241116720959912 L 755.7588832790409 250.0 M 510.0 -6.4440521172592184 L 766.4440521172601 250.0 M 510.0 -17.12922095547835 L 777.1292209554792 250.0 M 510.0 -27.81438979369748 L 787.8143897936984 250.0 M 510.0 -38.499558631916614 L 798.4995586319176 250.0 "/>
            </g>
        </pattern>
        <marker overflow="visible" orient="auto" id="arrow2-2958">
            <path d="M 0.0 0.0 L -6.3 2.25 L -3.78 0.0 L -6.3 -2.25 z "
                latexdraw:arrSizeNum="2.0" fill="black"/>
        </marker>
    </defs>
    <g>
        <g latexdraw:type="rectangle" id="id2854">
            <rect x="160.10000000149012" y="320.1000000014901"
                width="488.8001632175269" height="19.799999997019768"
                latexdraw:borderPos="outer"
                stroke-width="0.20000000298023224" stroke="#fefefe" fill="url(#pattern2854)"/>
        </g>
        <g latexdraw:type="line" id="id2855">
            <line x1="160.0" x2="649.0001632205071" y1="320.0"
                y2="320.0" stroke-width="2.0" stroke="black" latexdraw:rotationAngle="0.0"/>
        </g>
        <g latexdraw:type="line" id="id2856">
            <line x1="160.0" x2="650.0" y1="270.0" y2="270.0"
                stroke-width="1.0" stroke="black"
                stroke-dasharray="8.0, 8.0" latexdraw:rotationAngle="0.0"/>
        </g>
        <g latexdraw:type="line" id="id2857">
            <line x1="160.0" x2="650.0" y1="310.0" y2="310.0"
                stroke-width="4.0" stroke="black" latexdraw:rotationAngle="0.0"/>
        </g>
        <g latexdraw:type="drawing" id="id2858">
            <g latexdraw:type="drawing" id="id2859">
                <g latexdraw:type="drawing" id="id2860">
                    <g latexdraw:type="arc" id="id2861">
                        <path
                            d="M 181.5797985667433 314.3969262078591 A 10.0 10.0 0.0 1 0 175.0 305.0 "
                            stroke-width="1.0" stroke="black"
                            fill="none" latexdraw:rotationAngle="0.0" marker-end="url(#arrow2-2861)"/>
                    </g>
                    <g latexdraw:type="arc" id="id2865">
                        <path
                            d="M 211.5797985667433 314.3969262078591 A 10.0 10.0 0.0 1 0 205.0 305.0 "
                            stroke-width="1.0" stroke="black"
                            fill="none" latexdraw:rotationAngle="0.0" marker-end="url(#arrow2-2865)"/>
                    </g>
                    <g latexdraw:type="arc" id="id2869">
                        <path
                            d="M 241.5797985667433 314.3969262078591 A 10.0 10.0 0.0 1 0 235.0 305.0 "
                            stroke-width="1.0" stroke="black"
                            fill="none" latexdraw:rotationAngle="0.0" marker-end="url(#arrow2-2869)"/>
                    </g>
                    <g latexdraw:type="arc" id="id2873">
                        <path
                            d="M 271.5797985667433 314.3969262078591 A 10.0 10.0 0.0 1 0 265.0 305.0 "
                            stroke-width="1.0" stroke="black"
                            fill="none" latexdraw:rotationAngle="0.0" marker-end="url(#arrow2-2873)"/>
                    </g>
                </g>
                <g latexdraw:type="drawing" id="id2878">
                    <g latexdraw:type="arc" id="id2879">
                        <path
                            d="M 301.5797985667433 314.3969262078591 A 10.0 10.0 0.0 1 0 295.0 305.0 "
                            stroke-width="1.0" stroke="black"
                            fill="none" latexdraw:rotationAngle="0.0" marker-end="url(#arrow2-2879)"/>
                    </g>
                    <g latexdraw:type="arc" id="id2883">
                        <path
                            d="M 331.5797985667433 314.3969262078591 A 10.0 10.0 0.0 1 0 325.0 305.0 "
                            stroke-width="1.0" stroke="black"
                            fill="none" latexdraw:rotationAngle="0.0" marker-end="url(#arrow2-2883)"/>
                    </g>
                    <g latexdraw:type="arc" id="id2887">
                        <path
                            d="M 361.5797985667433 314.3969262078591 A 10.0 10.0 0.0 1 0 355.0 305.0 "
                            stroke-width="1.0" stroke="black"
                            fill="none" latexdraw:rotationAngle="0.0" marker-end="url(#arrow2-2887)"/>
                    </g>
                    <g latexdraw:type="arc" id="id2891">
                        <path
                            d="M 391.5797985667433 314.3969262078591 A 10.0 10.0 0.0 1 0 385.0 305.0 "
                            stroke-width="1.0" stroke="black"
                            fill="none" latexdraw:rotationAngle="0.0" marker-end="url(#arrow2-2891)"/>
                    </g>
                </g>
            </g>
            <g latexdraw:type="drawing" id="id2897">
                <g latexdraw:type="drawing" id="id2898">
                    <g latexdraw:type="arc" id="id2899">
                        <path
                            d="M 421.5797985667433 314.3969262078591 A 10.0 10.0 0.0 1 0 415.0 305.0 "
                            stroke-width="1.0" stroke="black"
                            fill="none" latexdraw:rotationAngle="0.0" marker-end="url(#arrow2-2899)"/>
                    </g>
                    <g latexdraw:type="arc" id="id2903">
                        <path
                            d="M 451.5797985667433 314.3969262078591 A 10.0 10.0 0.0 1 0 445.0 305.0 "
                            stroke-width="1.0" stroke="black"
                            fill="none" latexdraw:rotationAngle="0.0" marker-end="url(#arrow2-2903)"/>
                    </g>
                    <g latexdraw:type="arc" id="id2907">
                        <path
                            d="M 481.5797985667433 314.3969262078591 A 10.0 10.0 0.0 1 0 475.0 305.0 "
                            stroke-width="1.0" stroke="black"
                            fill="none" latexdraw:rotationAngle="0.0" marker-end="url(#arrow2-2907)"/>
                    </g>
                    <g latexdraw:type="arc" id="id2911">
                        <path
                            d="M 511.5797985667433 314.3969262078591 A 10.0 10.0 0.0 1 0 505.0 305.0 "
                            stroke-width="1.0" stroke="black"
                            fill="none" latexdraw:rotationAngle="0.0" marker-end="url(#arrow2-2911)"/>
                    </g>
                </g>
                <g latexdraw:type="drawing" id="id2916">
                    <g latexdraw:type="arc" id="id2917">
                        <path
                            d="M 541.5797985667433 314.3969262078591 A 10.0 10.0 0.0 1 0 535.0 305.0 "
                            stroke-width="1.0" stroke="black"
                            fill="none" latexdraw:rotationAngle="0.0" marker-end="url(#arrow2-2917)"/>
                    </g>
                    <g latexdraw:type="arc" id="id2921">
                        <path
                            d="M 571.5797985667433 314.3969262078591 A 10.0 10.0 0.0 1 0 565.0 305.0 "
                            stroke-width="1.0" stroke="black"
                            fill="none" latexdraw:rotationAngle="0.0" marker-end="url(#arrow2-2921)"/>
                    </g>
                    <g latexdraw:type="arc" id="id2925">
                        <path
                            d="M 601.5797985667433 314.3969262078591 A 10.0 10.0 0.0 1 0 595.0 305.0 "
                            stroke-width="1.0" stroke="black"
                            fill="none" latexdraw:rotationAngle="0.0" marker-end="url(#arrow2-2925)"/>
                    </g>
                    <g latexdraw:type="arc" id="id2929">
                        <path
                            d="M 631.5797985667433 314.3969262078591 A 10.0 10.0 0.0 1 0 625.0 305.0 "
                            stroke-width="1.0" stroke="black"
                            fill="none" latexdraw:rotationAngle="0.0" marker-end="url(#arrow2-2929)"/>
                    </g>
                </g>
            </g>
        </g>
        <g latexdraw:type="circle" id="id2936">
            <circle cx="225.0" cy="195.0" r="14.0"
                latexdraw:borderPos="outer" stroke-width="2.0"
                stroke="black" fill="url(#pattern2936)"/>
        </g>
        <g latexdraw:type="circle" id="id2938">
            <circle cx="295.0" cy="175.0" r="14.0"
                latexdraw:borderPos="outer" stroke-width="2.0"
                stroke="black" fill="url(#pattern2938)"/>
        </g>
        <g latexdraw:type="circle" id="id2940">
            <circle cx="285.0" cy="235.0" r="14.0"
                latexdraw:borderPos="outer" stroke-width="2.0"
                stroke="black" fill="url(#pattern2940)"/>
        </g>
        <g latexdraw:type="circle" id="id2942">
            <circle cx="395.0" cy="195.0" r="14.0"
                latexdraw:borderPos="outer" stroke-width="2.0"
                stroke="black" fill="url(#pattern2942)"/>
        </g>
        <g latexdraw:type="circle" id="id2944">
            <circle cx="355.0" cy="225.0" r="14.0"
                latexdraw:borderPos="outer" stroke-width="2.0"
                stroke="black" fill="url(#pattern2944)"/>
        </g>
        <g latexdraw:type="circle" id="id2946">
            <circle cx="455.0" cy="215.0" r="14.0"
                latexdraw:borderPos="outer" stroke-width="2.0"
                stroke="black" fill="url(#pattern2946)"/>
        </g>
        <g latexdraw:type="circle" id="id2948">
            <circle cx="365.0" cy="145.0" r="14.0"
                latexdraw:borderPos="outer" stroke-width="2.0"
                stroke="black" fill="url(#pattern2948)"/>
        </g>
        <g latexdraw:type="circle" id="id2950">
            <circle cx="435.0" cy="165.0" r="14.0"
                latexdraw:borderPos="outer" stroke-width="2.0"
                stroke="black" fill="url(#pattern2950)"/>
        </g>
        <g latexdraw:type="circle" id="id2952">
            <circle cx="595.0" cy="195.0" r="14.0"
                latexdraw:borderPos="outer" stroke-width="2.0"
                stroke="black" fill="url(#pattern2952)"/>
        </g>
        <g latexdraw:type="circle" id="id2954">
            <circle cx="545.0" cy="185.0" r="14.0"
                latexdraw:borderPos="outer" stroke-width="2.0"
                stroke="black" fill="url(#pattern2954)"/>
        </g>
        <g latexdraw:type="circle" id="id2956">
            <circle cx="525.0" cy="235.0" r="14.0"
                latexdraw:borderPos="outer" stroke-width="2.0"
                stroke="black" fill="url(#pattern2956)"/>
        </g>
        <g latexdraw:type="line" id="id2958">
            <line x1="160.0" x2="160.0" y1="320.0" y2="160.0"
                stroke-width="2.0" stroke="black"
                latexdraw:rotationAngle="0.0" marker-end="url(#arrow2-2958)"/>
        </g>
        <g latexdraw:type="text" id="id2959"
            font-family="Times New Roman" fill="black" font-size="14" latexdraw:x="110.0">
            <text x="110.0" y="160.0"><![CDATA[$\mathbf{\hat{n}}$]]></text>
        </g>
        <g latexdraw:type="text" id="id2962" font-family="Dialog"
            fill="black" font-size="14" latexdraw:x="564.0">
            <text x="564.0" y="357.0"><![CDATA[\textsf{wall}]]></text>
        </g>
        <g latexdraw:type="text" id="id2965"
            font-family="Times New Roman" fill="black" font-size="14" latexdraw:x="530.0">
            <text x="530.0" y="262.0"><![CDATA[\textsf{Vortex blob domain}]]></text>
        </g>
        <g latexdraw:type="text" id="id2968"
            font-family="Times New Roman" fill="black" font-size="14" latexdraw:x="525.0">
            <text x="525.0" y="284.0"><![CDATA[\textsf{Vortex sheet domain}]]></text>
        </g>
    </g>
    <metadata>
        <latexdraw:metadata>
            <latexdraw:displayBorders>false</latexdraw:displayBorders>
            <latexdraw:autoAdjust>true</latexdraw:autoAdjust>
            <latexdraw:ppc>50</latexdraw:ppc>
            <latexdraw:zoom>1.25</latexdraw:zoom>
            <latexdraw:unit>cm</latexdraw:unit>
            <latexdraw:classicGrid>false</latexdraw:classicGrid>
            <latexdraw:gridGap>10</latexdraw:gridGap>
            <latexdraw:code>0</latexdraw:code>
            <latexdraw:displayGrid>true</latexdraw:displayGrid>
            <latexdraw:magneticGrid>true</latexdraw:magneticGrid>
            <latexdraw:autoUpdate>true</latexdraw:autoUpdate>
            <latexdraw:version>2.0.8</latexdraw:version>
            <latexdraw:size>
                <latexdraw:width>1214</latexdraw:width>
                <latexdraw:height>691</latexdraw:height>
            </latexdraw:size>
            <latexdraw:position>
                <latexdraw:x>406</latexdraw:x>
                <latexdraw:y>293</latexdraw:y>
            </latexdraw:position>
            <latexdraw:dividerPosition>0.7240527182866557</latexdraw:dividerPosition>
            <latexdraw:displayCodePanel>true</latexdraw:displayCodePanel>
            <latexdraw:displayXScale>true</latexdraw:displayXScale>
            <latexdraw:displayYScale>true</latexdraw:displayYScale>
            <latexdraw:delimitorOpacity>130</latexdraw:delimitorOpacity>
        </latexdraw:metadata>
    </metadata>
</svg>
