<?xml version="1.0" encoding="UTF-8"?>
<svg xmlns="http://www.w3.org/2000/svg"
    xmlns:latexdraw="http://latexdraw.sourceforge.net/namespaces/latexdraw"
    version="1.1" baseProfile="full">
    <defs>
        <pattern latexdraw:type="hlines"
            latexdraw:rotationAngle="0.7853981633974483"
            latexdraw:size="7.05555534362793"
            patternUnits="userSpaceOnUse" id="pattern4733" x="0" y="0"
            width="378" height="361">
            <rect fill="white" stroke="none" width="378" height="361"/>
            <g stroke="black" stroke-width="2.0" stroke-dasharray="none">
                <path d="M 114.01133728027344 348.5544727322837 L 126.81782646205221 361.3609619140625 M 114.01133728027344 335.74798355050496 L 139.62431564383098 361.3609619140625 M 114.01133728027344 322.9414943687262 L 152.43080482560975 361.3609619140625 M 114.01133728027344 310.1350051869474 L 165.23729400738853 361.3609619140625 M 114.01133728027344 297.32851600516864 L 178.0437831891673 361.3609619140625 M 114.01133728027344 284.52202682338987 L 190.85027237094607 361.3609619140625 M 114.01133728027344 271.7155376416111 L 203.65676155272484 361.3609619140625 M 114.01133728027344 258.9090484598323 L 216.46325073450362 361.3609619140625 M 114.01133728027344 246.10255927805355 L 229.2697399162824 361.3609619140625 M 114.01133728027344 233.29607009627478 L 242.07622909806116 361.3609619140625 M 114.01133728027344 220.489580914496 L 254.88271827983993 361.3609619140625 M 114.01133728027344 207.68309173271723 L 267.6892074616187 361.3609619140625 M 114.01133728027344 194.87660255093846 L 280.4956966433975 361.3609619140625 M 114.01133728027344 182.07011336915969 L 293.30218582517625 361.3609619140625 M 114.01133728027344 169.2636241873809 L 306.108675006955 361.3609619140625 M 114.01133728027344 156.45713500560214 L 318.9151641887338 361.3609619140625 M 114.01133728027344 143.65064582382337 L 331.72165337051257 361.3609619140625 M 114.01133728027344 130.8441566420446 L 344.52814255229134 361.3609619140625 M 114.01133728027344 118.03766746026582 L 357.3346317340701 361.3609619140625 M 114.01133728027344 105.23117827848705 L 370.1411209158489 361.3609619140625 M 114.01133728027344 92.42468909670828 L 382.94761009762766 361.3609619140625 M 114.01133728027344 79.6181999149295 L 395.75409927940643 361.3609619140625 M 114.01133728027344 66.81171073315073 L 408.5605884611852 361.3609619140625 M 114.01133728027344 54.00522155137196 L 421.367077642964 361.3609619140625 M 114.01133728027344 41.19873236959319 L 434.17356682474275 361.3609619140625 M 114.01133728027344 28.392243187814415 L 446.9800560065215 361.3609619140625 M 114.01133728027344 15.585754006035643 L 459.7865451883003 361.3609619140625 M 114.01133728027344 2.7792648242568703 L 472.59303437007907 361.3609619140625 M 114.01133728027344 -10.027224357521902 L 485.39952355185784 361.3609619140625 M 114.01133728027344 -22.833713539300675 L 498.2060127336366 361.3609619140625 M 114.01133728027344 -35.64020272107945 L 511.0125019154154 361.3609619140625 M 114.01133728027344 -48.44669190285822 L 523.8189910971942 361.3609619140625 M 114.01133728027344 -61.25318108463699 L 536.6254802789729 361.3609619140625 M 114.01133728027344 -74.05967026641576 L 549.4319694607516 361.3609619140625 M 114.01133728027344 -86.86615944819454 L 562.2384586425303 361.3609619140625 M 114.01133728027344 -99.67264862997331 L 575.044947824309 361.3609619140625 M 114.01133728027344 -112.47913781175208 L 587.8514370060877 361.3609619140625 M 114.01133728027344 -125.28562699353085 L 600.6579261878665 361.3609619140625 M 114.01133728027344 -138.09211617530963 L 613.4644153696452 361.3609619140625 M 114.01133728027344 -150.8986053570884 L 626.2709045514239 361.3609619140625 M 114.01133728027344 -163.70509453886717 L 639.0773937332026 361.3609619140625 M 114.01133728027344 -176.51158372064594 L 651.8838829149813 361.3609619140625 M 114.01133728027344 -189.31807290242472 L 664.69037209676 361.3609619140625 M 114.01133728027344 -202.1245620842035 L 677.4968612785387 361.3609619140625 M 114.01133728027344 -214.93105126598226 L 690.3033504603175 361.3609619140625 M 114.01133728027344 -227.73754044776103 L 703.1098396420962 361.3609619140625 M 114.01133728027344 -240.5440296295398 L 715.9163288238749 361.3609619140625 M 114.01133728027344 -253.35051881131858 L 728.7228180056536 361.3609619140625 M 114.01133728027344 -266.15700799309735 L 741.5293071874323 361.3609619140625 "/>
            </g>
        </pattern>
        <marker overflow="visible" orient="auto" id="arrow2-4748">
            <path
                d="M 0.0 0.0 L -4.652083333333334 1.6614583333333335 L -2.79125 0.0 L -4.652083333333334 -1.6614583333333335 z "
                latexdraw:arrSizeNum="2.0" fill="black"/>
        </marker>
        <marker overflow="visible" orient="auto" id="arrow2-4752">
            <path
                d="M 0.0 0.0 L -4.652083333333334 1.6614583333333335 L -2.79125 0.0 L -4.652083333333334 -1.6614583333333335 z "
                latexdraw:arrSizeNum="2.0" fill="black"/>
        </marker>
        <marker overflow="visible" orient="auto" id="arrow2-4753">
            <path
                d="M 0.0 0.0 L -4.652083333333334 1.6614583333333335 L -2.79125 0.0 L -4.652083333333334 -1.6614583333333335 z "
                latexdraw:arrSizeNum="2.0" fill="black"/>
        </marker>
    </defs>
    <g>
        <g latexdraw:type="bezierCurve" id="id4733">
            <path
                d="M 129.3842010498047 253.0 C 140.01516388430306 206.0686757095454 262.6225714553077 173.52146279372147 291.4982962805784 185.0 C 320.3740211058491 196.47853720627853 375.0 210.41985435367133 371.01433550399577 260.0 C 367.02867100799153 309.5801456463287 345.37768497804575 324.3941651670551 316.7708358787189 343.0 C 288.1639867793921 361.6058348329449 251.40287517475338 346.1759778614248 220.61190472481877 344.0 C 189.82093427488417 341.8240221385752 189.7917344831847 349.0 161.4371778608808 335.0 C 133.0826212385769 321.0 118.75323821530631 299.9313242904546 129.3842010498047 253.0 z "
                stroke-width="9.0" stroke="black"
                fill="url(#pattern4733)" latexdraw:rotationAngle="0.0"/>
            <path
                d="M 129.3842010498047 253.0 C 140.01516388430306 206.0686757095454 262.6225714553077 173.52146279372147 291.4982962805784 185.0 C 320.3740211058491 196.47853720627853 375.0 210.41985435367133 371.01433550399577 260.0 C 367.02867100799153 309.5801456463287 345.37768497804575 324.3941651670551 316.7708358787189 343.0 C 288.1639867793921 361.6058348329449 251.40287517475338 346.1759778614248 220.61190472481877 344.0 C 189.82093427488417 341.8240221385752 189.7917344831847 349.0 161.4371778608808 335.0 C 133.0826212385769 321.0 118.75323821530631 299.9313242904546 129.3842010498047 253.0 z "
                stroke="#d9d9d9" stroke-width="5.0" fill="none" latexdraw:type="dbleborders"/>
        </g>
        <g latexdraw:type="bezierCurve" id="id4736">
            <path
                d="M 296.0 168.7334637948355 C 326.0190476190477 154.88015655380264 438.1955923252806 144.0 462.35555555555595 150.50542795137125 C 486.5155187858313 157.0108559027425 493.0 181.12852816839128 472.98730158730154 209.56426408419566 C 452.9746031746031 238.00000000000003 402.20816140417367 226.86740712501762 406.69523809523776 189.1488639395156 C 411.18231478630184 151.43032075401356 444.8444444444438 170.9208280960512 448.5968253968258 190.60710680699285 "
                stroke-width="2.0" stroke="black" fill="none" latexdraw:rotationAngle="0.0"/>
        </g>
        <g latexdraw:type="bezierCurve" id="id4739">
            <path
                d="M 289.0 364.0 C 342.86956521739137 382.0 437.29807412238625 378.0 482.0 377.0 C 526.7019258776138 376.0 606.0 339.27417393247254 579.0 299.0 C 552.0 258.72582606752746 509.33432698372246 278.3790184833293 498.0 300.0 C 486.66567301627754 321.6209815166707 514.5855689176692 369.9747043743791 545.0 325.0 "
                stroke-width="2.0" stroke="black" fill="none" latexdraw:rotationAngle="0.0"/>
        </g>
        <g latexdraw:type="text" id="id4742"
            font-family="Times New Roman" fill="black" font-size="35" latexdraw:x="479.0">
            <text x="479.0" y="145.0"><![CDATA[$\omega$]]></text>
        </g>
        <g latexdraw:type="text" id="id4745"
            font-family="Times New Roman" fill="black" font-size="35" latexdraw:x="70.0">
            <text x="70.0" y="168.0"><![CDATA[$\gamma$]]></text>
        </g>
        <g latexdraw:type="line" id="id4748">
            <line x1="70.0" x2="110.0" y1="90.0" y2="90.0"
                stroke-width="2.0" stroke="black"
                latexdraw:rotationAngle="0.0" marker-end="url(#arrow2-4748)"/>
        </g>
        <g latexdraw:type="text" id="id4749"
            font-family="Times New Roman" fill="black" font-size="30" latexdraw:x="-49.0">
            <text x="-49.0" y="76.0"><![CDATA[$\mathbf{u}_{\infty}$]]></text>
        </g>
        <g latexdraw:type="line" id="id4752">
            <line x1="150.0" x2="180.0" y1="170.0" y2="200.0"
                stroke-width="2.0" stroke="black"
                latexdraw:rotationAngle="0.0" marker-end="url(#arrow2-4752)"/>
        </g>
        <g latexdraw:type="line" id="id4753">
            <line x1="530.0" x2="470.0" y1="150.0" y2="180.0"
                stroke-width="2.0" stroke="black"
                latexdraw:rotationAngle="0.0" marker-end="url(#arrow2-4753)"/>
        </g>
        <g latexdraw:type="text" id="id4754"
            font-family="Times New Roman" fill="#010101" font-size="30" latexdraw:x="180.0">
            <text x="180.0" y="280.0"><![CDATA[\definecolor{color4754}{rgb}{0.00392156862745098,0.00392156862745098,0.00392156862745098}\definecolor{color4756}{rgb}{0.996078431372549,0.996078431372549,0.996078431372549}\color{color4754}\psframebox[linewidth=0.04,linecolor=color4756,fillstyle=solid]{\textsf{body}}]]></text>
        </g>
    </g>
    <metadata>
        <latexdraw:metadata>
            <latexdraw:displayBorders>false</latexdraw:displayBorders>
            <latexdraw:autoAdjust>true</latexdraw:autoAdjust>
            <latexdraw:ppc>50</latexdraw:ppc>
            <latexdraw:zoom>1.0</latexdraw:zoom>
            <latexdraw:unit>cm</latexdraw:unit>
            <latexdraw:classicGrid>false</latexdraw:classicGrid>
            <latexdraw:gridGap>10</latexdraw:gridGap>
            <latexdraw:code>0</latexdraw:code>
            <latexdraw:displayGrid>true</latexdraw:displayGrid>
            <latexdraw:magneticGrid>true</latexdraw:magneticGrid>
            <latexdraw:autoUpdate>true</latexdraw:autoUpdate>
            <latexdraw:version>2.0.8</latexdraw:version>
            <latexdraw:size>
                <latexdraw:width>1873</latexdraw:width>
                <latexdraw:height>1083</latexdraw:height>
            </latexdraw:size>
            <latexdraw:position>
                <latexdraw:x>48</latexdraw:x>
                <latexdraw:y>-2</latexdraw:y>
            </latexdraw:position>
            <latexdraw:dividerPosition>0.6438868126001068</latexdraw:dividerPosition>
            <latexdraw:displayCodePanel>true</latexdraw:displayCodePanel>
            <latexdraw:displayXScale>true</latexdraw:displayXScale>
            <latexdraw:displayYScale>true</latexdraw:displayYScale>
            <latexdraw:delimitorOpacity>130</latexdraw:delimitorOpacity>
        </latexdraw:metadata>
    </metadata>
</svg>
