<?xml version="1.0" encoding="UTF-8"?>
<svg xmlns="http://www.w3.org/2000/svg"
    xmlns:latexdraw="http://latexdraw.sourceforge.net/namespaces/latexdraw"
    version="1.1" baseProfile="full">
    <defs>
        <pattern latexdraw:type="hlines"
            latexdraw:rotationAngle="-0.7853981633974483"
            latexdraw:size="5.0" patternUnits="userSpaceOnUse"
            id="pattern109" x="0" y="0" width="661" height="392">
            <rect fill="white" stroke="none" width="661" height="392"/>
            <g stroke="black" stroke-width="1.0" stroke-dasharray="none">
                <path d="M 141.0 247.48528137423858 L 149.48528137423858 239.0 M 141.0 255.97056274847716 L 157.97056274847716 239.0 M 141.0 264.45584412271575 L 166.45584412271575 239.0 M 141.0 272.9411254969543 L 174.94112549695433 239.0 M 141.0 281.4264068711929 L 183.4264068711929 239.0 M 141.0 289.9116882454315 L 191.9116882454315 239.0 M 141.0 298.3969696196701 L 200.39696961967007 239.0 M 141.0 306.88225099390866 L 208.88225099390866 239.0 M 141.0 315.36753236814724 L 217.36753236814724 239.0 M 141.0 323.8528137423858 L 225.85281374238582 239.0 M 141.0 332.3380951166244 L 234.3380951166244 239.0 M 141.0 340.823376490863 L 242.82337649086298 239.0 M 141.0 349.30865786510157 L 251.30865786510157 239.0 M 141.0 357.79393923934015 L 259.79393923934015 239.0 M 141.0 366.27922061357873 L 268.27922061357873 239.0 M 141.0 374.7645019878173 L 276.7645019878173 239.0 M 141.0 383.2497833620559 L 285.2497833620559 239.0 M 141.0 391.7350647362945 L 293.7350647362945 239.0 M 141.0 400.22034611053306 L 302.22034611053306 239.0 M 141.0 408.70562748477164 L 310.70562748477164 239.0 M 141.0 417.1909088590102 L 319.1909088590102 239.0 M 141.0 425.6761902332488 L 327.6761902332488 239.0 M 141.0 434.1614716074874 L 336.1614716074874 239.0 M 141.0 442.64675298172597 L 344.64675298172597 239.0 M 141.0 451.13203435596455 L 353.13203435596455 239.0 M 141.0 459.61731573020313 L 361.61731573020313 239.0 M 141.0 468.1025971044417 L 370.1025971044417 239.0 M 141.0 476.5878784786803 L 378.5878784786803 239.0 M 141.0 485.0731598529189 L 387.0731598529189 239.0 M 141.0 493.55844122715746 L 395.55844122715746 239.0 M 141.0 502.04372260139604 L 404.04372260139604 239.0 M 141.0 510.5290039756346 L 412.5290039756346 239.0 M 141.0 519.0142853498731 L 421.0142853498732 239.0 M 141.0 527.4995667241117 L 429.4995667241118 239.0 M 141.0 535.9848480983502 L 437.98484809835037 239.0 M 141.0 544.4701294725887 L 446.47012947258895 239.0 M 141.0 552.9554108468272 L 454.95541084682753 239.0 M 141.0 561.4406922210658 L 463.4406922210661 239.0 M 141.0 569.9259735953043 L 471.9259735953047 239.0 M 141.0 578.4112549695428 L 480.4112549695433 239.0 M 141.0 586.8965363437813 L 488.89653634378186 239.0 M 141.0 595.3818177180199 L 497.38181771802044 239.0 M 141.0 603.8670990922584 L 505.867099092259 239.0 M 141.0 612.3523804664969 L 514.3523804664976 239.0 M 141.0 620.8376618407354 L 522.8376618407361 239.0 M 141.0 629.322943214974 L 531.3229432149747 239.0 M 141.0 637.8082245892125 L 539.8082245892132 239.0 M 141.0 646.293505963451 L 548.2935059634517 239.0 M 141.0 654.7787873376896 L 556.7787873376902 239.0 M 141.0 663.2640687119281 L 565.2640687119288 239.0 M 141.0 671.7493500861666 L 573.7493500861673 239.0 M 141.0 680.2346314604051 L 582.2346314604058 239.0 M 141.0 688.7199128346437 L 590.7199128346443 239.0 M 141.0 697.2051942088822 L 599.2051942088829 239.0 M 141.0 705.6904755831207 L 607.6904755831214 239.0 M 141.0 714.1757569573592 L 616.1757569573599 239.0 M 141.0 722.6610383315978 L 624.6610383315984 239.0 M 141.0 731.1463197058363 L 633.146319705837 239.0 M 141.0 739.6316010800748 L 641.6316010800755 239.0 M 141.0 748.1168824543133 L 650.116882454314 239.0 M 141.0 756.6021638285519 L 658.6021638285525 239.0 M 141.0 765.0874452027904 L 667.0874452027911 239.0 M 141.0 773.5727265770289 L 675.5727265770296 239.0 M 141.0 782.0580079512674 L 684.0580079512681 239.0 M 141.0 790.543289325506 L 692.5432893255066 239.0 M 141.0 799.0285706997445 L 701.0285706997452 239.0 M 141.0 807.513852073983 L 709.5138520739837 239.0 M 141.0 815.9991334482215 L 717.9991334482222 239.0 M 141.0 824.48441482246 L 726.4844148224607 239.0 M 141.0 832.9696961966986 L 734.9696961966993 239.0 M 141.0 841.4549775709371 L 743.4549775709378 239.0 M 141.0 849.9402589451756 L 751.9402589451763 239.0 M 141.0 858.4255403194142 L 760.4255403194148 239.0 M 141.0 866.9108216936527 L 768.9108216936534 239.0 M 141.0 875.3961030678912 L 777.3961030678919 239.0 M 141.0 883.8813844421297 L 785.8813844421304 239.0 M 141.0 892.3666658163683 L 794.3666658163689 239.0 M 141.0 900.8519471906068 L 802.8519471906075 239.0 M 141.0 909.3372285648453 L 811.337228564846 239.0 M 141.0 917.8225099390838 L 819.8225099390845 239.0 M 141.0 926.3077913133224 L 828.307791313323 239.0 M 141.0 934.7930726875609 L 836.7930726875616 239.0 M 141.0 943.2783540617994 L 845.2783540618001 239.0 M 141.0 951.7636354360379 L 853.7636354360386 239.0 M 141.0 960.2489168102765 L 862.2489168102771 239.0 M 141.0 968.734198184515 L 870.7341981845157 239.0 M 141.0 977.2194795587535 L 879.2194795587542 239.0 M 141.0 985.704760932992 L 887.7047609329927 239.0 M 141.0 994.1900423072306 L 896.1900423072312 239.0 M 141.0 1002.6753236814691 L 904.6753236814698 239.0 M 141.0 1011.1606050557076 L 913.1606050557083 239.0 M 141.0 1019.6458864299461 L 921.6458864299468 239.0 M 141.0 1028.1311678041848 L 930.1311678041853 239.0 M 141.0 1036.6164491784234 L 938.6164491784239 239.0 M 141.0 1045.101730552662 L 947.1017305526624 239.0 M 141.0 1053.5870119269007 L 955.5870119269009 239.0 M 141.0 1062.0722933011393 L 964.0722933011394 239.0 M 141.0 1070.557574675378 L 972.557574675378 239.0 M 141.0 1079.0428560496166 L 981.0428560496165 239.0 M 141.0 1087.5281374238552 L 989.528137423855 239.0 M 141.0 1096.0134187980939 L 998.0134187980935 239.0 M 141.0 1104.4987001723325 L 1006.4987001723321 239.0 M 141.0 1112.9839815465712 L 1014.9839815465706 239.0 M 141.0 1121.4692629208098 L 1023.4692629208091 239.0 M 141.0 1129.9545442950484 L 1031.9545442950478 239.0 M 141.0 1138.439825669287 L 1040.4398256692864 239.0 M 141.0 1146.9251070435257 L 1048.925107043525 239.0 M 141.0 1155.4103884177644 L 1057.4103884177637 239.0 "/>
            </g>
        </pattern>
        <marker overflow="visible" orient="auto" id="arrow2-112">
            <path
                d="M 0.0 0.0 L -4.652083333333334 1.6614583333333335 L -2.79125 0.0 L -4.652083333333334 -1.6614583333333335 z "
                latexdraw:arrSizeNum="2.0" fill="black"/>
        </marker>
        <marker overflow="visible" orient="auto" id="arrow2-113">
            <path
                d="M 0.0 0.0 L -4.652083333333334 1.6614583333333335 L -2.79125 0.0 L -4.652083333333334 -1.6614583333333335 z "
                latexdraw:arrSizeNum="2.0" fill="black"/>
        </marker>
        <marker overflow="visible" orient="auto" id="arrow1-114">
            <circle r="1.3527777777777779" latexdraw:dotSizeNum="2.0" fill="black"/>
        </marker>
        <marker overflow="visible" orient="auto" id="arrow2-114">
            <circle r="1.3527777777777779" latexdraw:dotSizeNum="2.0" fill="black"/>
        </marker>
        <marker overflow="visible" orient="auto" id="arrow2-115">
            <path
                d="M 0.0 0.0 L -4.652083333333334 1.6614583333333335 L -2.79125 0.0 L -4.652083333333334 -1.6614583333333335 z "
                latexdraw:arrSizeNum="2.0" fill="black"/>
        </marker>
        <marker overflow="visible" orient="auto" id="arrow2-116">
            <path
                d="M 0.0 0.0 L -4.652083333333334 1.6614583333333335 L -2.79125 0.0 L -4.652083333333334 -1.6614583333333335 z "
                latexdraw:arrSizeNum="2.0" fill="black"/>
        </marker>
    </defs>
    <g>
        <g latexdraw:type="bezierCurve" id="id109">
            <path
                d="M 580.0 310.0 C 610.0 320.0 620.0 340.0 640.0 320.0 C 660.0 300.0 380.0 240.0 340.0 240.0 C 300.0 240.0 169.591006409413 275.0 155.7955032047065 333.0 C 142.0 391.0 178.15034413509417 331.2529300132525 210.0 300.0 C 241.84965586490583 268.7470699867475 337.86741168380905 263.5796154606367 370.0 270.0 C 402.13258831619095 276.4203845393633 550.0 300.0 580.0 310.0 z "
                transform="translate(2.0 0.0) translate(-2.0 -2.0)"
                stroke-width="2.0" fill="#404040" stroke="#404040" latexdraw:type="shadow"/>
            <path
                d="M 580.0 310.0 C 610.0 320.0 620.0 340.0 640.0 320.0 C 660.0 300.0 380.0 240.0 340.0 240.0 C 300.0 240.0 169.591006409413 275.0 155.7955032047065 333.0 C 142.0 391.0 178.15034413509417 331.2529300132525 210.0 300.0 C 241.84965586490583 268.7470699867475 337.86741168380905 263.5796154606367 370.0 270.0 C 402.13258831619095 276.4203845393633 550.0 300.0 580.0 310.0 z "
                stroke-width="2.0" stroke="#fefefe"
                fill="url(#pattern109)" latexdraw:rotationAngle="0.0"/>
        </g>
        <g latexdraw:type="line" id="id112">
            <line x1="140.0" x2="640.0" y1="370.0" y2="370.0"
                stroke-width="2.0" stroke="black"
                latexdraw:rotationAngle="0.0" marker-end="url(#arrow2-112)"/>
        </g>
        <g latexdraw:type="line" id="id113">
            <line x1="140.0" x2="140.0" y1="370.0" y2="70.0"
                stroke-width="2.0" stroke="black"
                latexdraw:rotationAngle="0.0" marker-end="url(#arrow2-113)"/>
        </g>
        <g latexdraw:type="line" id="id114">
            <line x1="370.0" x2="559.0" y1="240.0" y2="283.0"
                stroke-width="5.0" stroke="black"
                latexdraw:rotationAngle="0.0"
                marker-start="url(#arrow1-114)" marker-end="url(#arrow2-114)"/>
        </g>
        <g latexdraw:type="line" id="id115">
            <line x1="370.0" x2="400.0" y1="238.0" y2="110.0"
                stroke-width="2.0" stroke="black"
                latexdraw:rotationAngle="0.0" marker-end="url(#arrow2-115)"/>
        </g>
        <g latexdraw:type="line" id="id116">
            <line x1="563.0" x2="652.0" y1="284.0" y2="305.0"
                stroke-width="2.0" stroke="black"
                latexdraw:rotationAngle="0.0" marker-end="url(#arrow2-116)"/>
        </g>
        <g latexdraw:type="text" id="id117"
            font-family="Times New Roman" fill="black" font-size="18" latexdraw:x="111.0">
            <text x="111.0" y="97.0"><![CDATA[$y$]]></text>
        </g>
        <g latexdraw:type="text" id="id119"
            font-family="Times New Roman" fill="black" font-size="18" latexdraw:x="595.0">
            <text x="595.0" y="389.0"><![CDATA[$x$]]></text>
        </g>
        <g latexdraw:type="text" id="id121"
            font-family="Times New Roman" fill="black" font-size="18" latexdraw:x="306.0">
            <text x="306.0" y="134.0"><![CDATA[$\mathbf{\hat{n}}_i$]]></text>
        </g>
        <g latexdraw:type="text" id="id123"
            font-family="Times New Roman" fill="black" font-size="18" latexdraw:x="560.0">
            <text x="560.0" y="277.0"><![CDATA[$\mathbf{\hat{t}}_i$]]></text>
        </g>
        <g latexdraw:type="text" id="id125"
            font-family="Times New Roman" fill="black" font-size="22" latexdraw:x="312.0">
            <text x="312.0" y="323.0"><![CDATA[\textsf{body}]]></text>
        </g>
        <g latexdraw:type="text" id="id127"
            font-family="Times New Roman" fill="black" font-size="22" latexdraw:x="397.0">
            <text x="397.0" y="247.0"><![CDATA[\textsf{panel}$_i$]]></text>
        </g>
    </g>
    <metadata>
        <latexdraw:metadata>
            <latexdraw:displayBorders>false</latexdraw:displayBorders>
            <latexdraw:autoAdjust>true</latexdraw:autoAdjust>
            <latexdraw:ppc>50</latexdraw:ppc>
            <latexdraw:zoom>1.0</latexdraw:zoom>
            <latexdraw:unit>cm</latexdraw:unit>
            <latexdraw:classicGrid>false</latexdraw:classicGrid>
            <latexdraw:gridGap>10</latexdraw:gridGap>
            <latexdraw:code>0</latexdraw:code>
            <latexdraw:displayGrid>true</latexdraw:displayGrid>
            <latexdraw:magneticGrid>true</latexdraw:magneticGrid>
            <latexdraw:autoUpdate>true</latexdraw:autoUpdate>
            <latexdraw:version>2.0.8</latexdraw:version>
            <latexdraw:size>
                <latexdraw:width>1533</latexdraw:width>
                <latexdraw:height>707</latexdraw:height>
            </latexdraw:size>
            <latexdraw:position>
                <latexdraw:x>220</latexdraw:x>
                <latexdraw:y>213</latexdraw:y>
            </latexdraw:position>
            <latexdraw:dividerPosition>0.6073059360730594</latexdraw:dividerPosition>
            <latexdraw:displayCodePanel>true</latexdraw:displayCodePanel>
            <latexdraw:displayXScale>true</latexdraw:displayXScale>
            <latexdraw:displayYScale>true</latexdraw:displayYScale>
            <latexdraw:delimitorOpacity>130</latexdraw:delimitorOpacity>
        </latexdraw:metadata>
    </metadata>
</svg>
