<?xml version="1.0" encoding="UTF-8"?>
<svg xmlns="http://www.w3.org/2000/svg"
    xmlns:latexdraw="http://latexdraw.sourceforge.net/namespaces/latexdraw"
    version="1.1" baseProfile="full">
    <defs>
        <pattern latexdraw:type="crosshatch"
            latexdraw:rotationAngle="0.0" latexdraw:size="20.0"
            patternUnits="userSpaceOnUse" id="pattern65" x="0" y="0"
            width="700" height="500">
            <rect fill="white" stroke="none" width="700" height="500"/>
            <g stroke="#969696" stroke-width="0.5" stroke-dasharray="none">
                <path d="M 100.0 100.0 L 100.0 500.0 M 120.5 100.0 L 120.5 500.0 M 141.0 100.0 L 141.0 500.0 M 161.5 100.0 L 161.5 500.0 M 182.0 100.0 L 182.0 500.0 M 202.5 100.0 L 202.5 500.0 M 223.0 100.0 L 223.0 500.0 M 243.5 100.0 L 243.5 500.0 M 264.0 100.0 L 264.0 500.0 M 284.5 100.0 L 284.5 500.0 M 305.0 100.0 L 305.0 500.0 M 325.5 100.0 L 325.5 500.0 M 346.0 100.0 L 346.0 500.0 M 366.5 100.0 L 366.5 500.0 M 387.0 100.0 L 387.0 500.0 M 407.5 100.0 L 407.5 500.0 M 428.0 100.0 L 428.0 500.0 M 448.5 100.0 L 448.5 500.0 M 469.0 100.0 L 469.0 500.0 M 489.5 100.0 L 489.5 500.0 M 510.0 100.0 L 510.0 500.0 M 530.5 100.0 L 530.5 500.0 M 551.0 100.0 L 551.0 500.0 M 571.5 100.0 L 571.5 500.0 M 592.0 100.0 L 592.0 500.0 M 612.5 100.0 L 612.5 500.0 M 633.0 100.0 L 633.0 500.0 M 653.5 100.0 L 653.5 500.0 M 674.0 100.0 L 674.0 500.0 M 694.5 100.0 L 694.5 500.0 M 100.0 100.0 L 700.0 100.0 M 100.0 120.5 L 700.0 120.5 M 100.0 141.0 L 700.0 141.0 M 100.0 161.5 L 700.0 161.5 M 100.0 182.0 L 700.0 182.0 M 100.0 202.5 L 700.0 202.5 M 100.0 223.0 L 700.0 223.0 M 100.0 243.5 L 700.0 243.5 M 100.0 264.0 L 700.0 264.0 M 100.0 284.5 L 700.0 284.5 M 100.0 305.0 L 700.0 305.0 M 100.0 325.5 L 700.0 325.5 M 100.0 346.0 L 700.0 346.0 M 100.0 366.5 L 700.0 366.5 M 100.0 387.0 L 700.0 387.0 M 100.0 407.5 L 700.0 407.5 M 100.0 428.0 L 700.0 428.0 M 100.0 448.5 L 700.0 448.5 M 100.0 469.0 L 700.0 469.0 M 100.0 489.5 L 700.0 489.5 "/>
            </g>
        </pattern>
        <pattern latexdraw:type="hlines"
            latexdraw:rotationAngle="-0.7853981633974483"
            latexdraw:size="7.05555534362793"
            patternUnits="userSpaceOnUse" id="pattern69" x="0" y="0"
            width="490" height="360">
            <rect fill="white" stroke="none" width="490" height="360"/>
            <g stroke="black" stroke-width="2.0" stroke-dasharray="none">
                <path d="M 310.0 252.80648918177877 L 322.8064891817788 240.0 M 310.0 265.61297836355754 L 335.61297836355754 240.0 M 310.0 278.4194675453363 L 348.4194675453363 240.0 M 310.0 291.2259567271151 L 361.2259567271151 240.0 M 310.0 304.03244590889386 L 374.03244590889386 240.0 M 310.0 316.83893509067263 L 386.83893509067263 240.0 M 310.0 329.6454242724514 L 399.6454242724514 240.0 M 310.0 342.4519134542302 L 412.4519134542302 240.0 M 310.0 355.25840263600895 L 425.25840263600895 240.0 M 310.0 368.0648918177877 L 438.0648918177877 240.0 M 310.0 380.8713809995665 L 450.8713809995665 240.0 M 310.0 393.67787018134527 L 463.67787018134527 240.0 M 310.0 406.48435936312404 L 476.48435936312404 240.0 M 310.0 419.2908485449028 L 489.2908485449028 240.0 M 310.0 432.0973377266816 L 502.0973377266816 240.0 M 310.0 444.90382690846036 L 514.9038269084604 240.0 M 310.0 457.71031609023913 L 527.7103160902391 240.0 M 310.0 470.5168052720179 L 540.5168052720178 240.0 M 310.0 483.3232944537967 L 553.3232944537965 240.0 M 310.0 496.12978363557545 L 566.1297836355752 240.0 M 310.0 508.9362728173542 L 578.9362728173539 240.0 M 310.0 521.742761999133 L 591.7427619991327 240.0 M 310.0 534.5492511809118 L 604.5492511809114 240.0 M 310.0 547.3557403626905 L 617.3557403626901 240.0 M 310.0 560.1622295444693 L 630.1622295444688 240.0 M 310.0 572.968718726248 L 642.9687187262475 240.0 M 310.0 585.7752079080267 L 655.7752079080262 240.0 M 310.0 598.5816970898054 L 668.581697089805 240.0 M 310.0 611.3881862715841 L 681.3881862715837 240.0 M 310.0 624.1946754533628 L 694.1946754533624 240.0 M 310.0 637.0011646351415 L 707.0011646351411 240.0 M 310.0 649.8076538169203 L 719.8076538169198 240.0 M 310.0 662.614142998699 L 732.6141429986985 240.0 M 310.0 675.4206321804777 L 745.4206321804772 240.0 M 310.0 688.2271213622564 L 758.227121362256 240.0 M 310.0 701.0336105440351 L 771.0336105440347 240.0 M 310.0 713.8400997258138 L 783.8400997258134 240.0 M 310.0 726.6465889075926 L 796.6465889075921 240.0 M 310.0 739.4530780893713 L 809.4530780893708 240.0 M 310.0 752.25956727115 L 822.2595672711495 240.0 M 310.0 765.0660564529287 L 835.0660564529283 240.0 M 310.0 777.8725456347074 L 847.872545634707 240.0 M 310.0 790.6790348164861 L 860.6790348164857 240.0 "/>
            </g>
        </pattern>
        <marker overflow="visible" orient="auto" id="arrow1-71">
            <path
                d="M 0.0 0.0 L 7.452083333333333 2.6614583333333335 L 4.4712499999999995 0.0 L 7.452083333333333 -2.6614583333333335 z "
                latexdraw:arrSizeNum="4.0" fill="black"/>
        </marker>
        <marker overflow="visible" orient="auto" id="arrow2-71">
            <path
                d="M 0.0 0.0 L -7.452083333333333 2.6614583333333335 L -4.4712499999999995 0.0 L -7.452083333333333 -2.6614583333333335 z "
                latexdraw:arrSizeNum="4.0" fill="black"/>
        </marker>
        <marker overflow="visible" orient="auto" id="arrow1-72">
            <path
                d="M 0.0 0.0 L 7.452083333333333 2.6614583333333335 L 4.4712499999999995 0.0 L 7.452083333333333 -2.6614583333333335 z "
                latexdraw:arrSizeNum="4.0" fill="black"/>
        </marker>
    </defs>
    <g>
        <g latexdraw:type="ellipse" id="id65">
            <ellipse cx="400.0" cy="300.0" rx="299.0" ry="199.0"
                latexdraw:borderPos="outer" stroke-width="2.0"
                stroke="black" fill="url(#pattern65)"/>
        </g>
        <g latexdraw:type="ellipse" id="id67">
            <ellipse cx="400.0" cy="300.0" rx="179.0" ry="119.0"
                latexdraw:borderPos="outer" stroke-width="2.0"
                stroke="black" fill="none"/>
        </g>
        <g latexdraw:type="ellipse" id="id69">
            <ellipse cx="400.0" cy="300.0" rx="89.0" ry="59.0"
                latexdraw:borderPos="outer" stroke-width="2.0"
                stroke="black" fill="url(#pattern69)"/>
        </g>
        <g latexdraw:type="line" id="id71">
            <line x1="490.0" x2="680.0" y1="290.0" y2="230.0"
                stroke-width="2.0" stroke="black"
                latexdraw:rotationAngle="0.0"
                marker-start="url(#arrow1-71)" marker-end="url(#arrow2-71)"/>
        </g>
        <g latexdraw:type="line" id="id72">
            <line x1="550.9999999999928" x2="740.0"
                y1="370.85909892324565" y2="480.0" stroke-width="2.0"
                stroke="black" latexdraw:rotationAngle="0.0" marker-start="url(#arrow1-72)"/>
        </g>
        <g latexdraw:type="text" id="id73" font-family="Dialog"
            fill="black" font-size="35" latexdraw:x="490.0">
            <text x="490.0" y="230.0"><![CDATA[$\Omega_{E}$]]></text>
        </g>
        <g latexdraw:type="text" id="id75" font-family="Dialog"
            fill="black" font-size="35" latexdraw:x="570.0">
            <text x="570.0" y="440.0"><![CDATA[$\Omega_{L}$]]></text>
        </g>
        <g latexdraw:type="text" id="id77" font-family="Dialog"
            fill="black" font-size="24" latexdraw:x="318.0">
            <text x="318.0" y="305.0"><![CDATA[\definecolor{color79}{rgb}{0.996078431372549,0.996078431372549,0.996078431372549}\psframebox[linewidth=0.04,linecolor=color79,fillstyle=solid]{\textsf{body}}]]></text>
        </g>
    </g>
    <metadata>
        <latexdraw:metadata>
            <latexdraw:displayBorders>false</latexdraw:displayBorders>
            <latexdraw:autoAdjust>true</latexdraw:autoAdjust>
            <latexdraw:ppc>50</latexdraw:ppc>
            <latexdraw:zoom>1.0</latexdraw:zoom>
            <latexdraw:unit>cm</latexdraw:unit>
            <latexdraw:classicGrid>false</latexdraw:classicGrid>
            <latexdraw:gridGap>10</latexdraw:gridGap>
            <latexdraw:code>0</latexdraw:code>
            <latexdraw:displayGrid>true</latexdraw:displayGrid>
            <latexdraw:magneticGrid>true</latexdraw:magneticGrid>
            <latexdraw:autoUpdate>true</latexdraw:autoUpdate>
            <latexdraw:version>2.0.8</latexdraw:version>
            <latexdraw:size>
                <latexdraw:width>1249</latexdraw:width>
                <latexdraw:height>1028</latexdraw:height>
            </latexdraw:size>
            <latexdraw:position>
                <latexdraw:x>670</latexdraw:x>
                <latexdraw:y>52</latexdraw:y>
            </latexdraw:position>
            <latexdraw:dividerPosition>0.7485988791032826</latexdraw:dividerPosition>
            <latexdraw:displayCodePanel>true</latexdraw:displayCodePanel>
            <latexdraw:displayXScale>true</latexdraw:displayXScale>
            <latexdraw:displayYScale>true</latexdraw:displayYScale>
            <latexdraw:delimitorOpacity>130</latexdraw:delimitorOpacity>
        </latexdraw:metadata>
    </metadata>
</svg>
