<?xml version="1.0" encoding="UTF-8"?>
<svg xmlns="http://www.w3.org/2000/svg"
    xmlns:latexdraw="http://latexdraw.sourceforge.net/namespaces/latexdraw"
    version="1.1" baseProfile="full">
    <defs>
        <pattern latexdraw:type="crosshatch"
            latexdraw:rotationAngle="0.0" latexdraw:size="30.0"
            patternUnits="userSpaceOnUse" id="pattern17" x="0" y="0"
            width="840" height="550">
            <rect fill="white" stroke="none" width="840" height="550"/>
            <g stroke="#828282" stroke-width="1.0" stroke-dasharray="none">
                <path d="M 250.0 180.0 L 250.0 550.0 M 281.0 180.0 L 281.0 550.0 M 312.0 180.0 L 312.0 550.0 M 343.0 180.0 L 343.0 550.0 M 374.0 180.0 L 374.0 550.0 M 405.0 180.0 L 405.0 550.0 M 436.0 180.0 L 436.0 550.0 M 467.0 180.0 L 467.0 550.0 M 498.0 180.0 L 498.0 550.0 M 529.0 180.0 L 529.0 550.0 M 560.0 180.0 L 560.0 550.0 M 591.0 180.0 L 591.0 550.0 M 622.0 180.0 L 622.0 550.0 M 653.0 180.0 L 653.0 550.0 M 684.0 180.0 L 684.0 550.0 M 715.0 180.0 L 715.0 550.0 M 746.0 180.0 L 746.0 550.0 M 777.0 180.0 L 777.0 550.0 M 808.0 180.0 L 808.0 550.0 M 839.0 180.0 L 839.0 550.0 M 250.0 180.0 L 840.0 180.0 M 250.0 211.0 L 840.0 211.0 M 250.0 242.0 L 840.0 242.0 M 250.0 273.0 L 840.0 273.0 M 250.0 304.0 L 840.0 304.0 M 250.0 335.0 L 840.0 335.0 M 250.0 366.0 L 840.0 366.0 M 250.0 397.0 L 840.0 397.0 M 250.0 428.0 L 840.0 428.0 M 250.0 459.0 L 840.0 459.0 M 250.0 490.0 L 840.0 490.0 M 250.0 521.0 L 840.0 521.0 "/>
            </g>
        </pattern>
        <pattern latexdraw:type="vlines"
            latexdraw:rotationAngle="-0.7853981633974483"
            latexdraw:size="7.05555534362793"
            patternUnits="userSpaceOnUse" id="pattern19" x="0" y="0"
            width="600" height="400">
            <rect fill="white" stroke="none" width="600" height="400"/>
            <g stroke="black" stroke-width="2.0" stroke-dasharray="none">
                <path d="M 490.0 387.1935108182212 L 502.8064891817788 400.0 M 490.0 374.38702163644246 L 515.6129783635575 400.0 M 490.0 361.5805324546637 L 528.4194675453363 400.0 M 490.0 348.7740432728849 L 541.225956727115 400.0 M 490.0 335.96755409110614 L 554.0324459088937 400.0 M 490.0 323.16106490932737 L 566.8389350906724 400.0 M 490.0 310.3545757275486 L 579.6454242724511 400.0 M 490.0 297.5480865457698 L 592.4519134542298 400.0 M 490.0 284.74159736399105 L 605.2584026360086 400.0 M 490.0 271.9351081822123 L 618.0648918177873 400.0 M 490.0 259.1286190004335 L 630.871380999566 400.0 M 490.0 246.32212981865473 L 643.6778701813447 400.0 M 490.0 233.51564063687596 L 656.4843593631234 400.0 M 490.0 220.70915145509719 L 669.2908485449021 400.0 M 490.0 207.9026622733184 L 682.0973377266808 400.0 M 490.0 195.09617309153964 L 694.9038269084596 400.0 M 490.0 182.28968390976087 L 707.7103160902383 400.0 M 490.0 169.4831947279821 L 720.516805272017 400.0 M 490.0 156.67670554620332 L 733.3232944537957 400.0 M 490.0 143.87021636442455 L 746.1297836355744 400.0 M 490.0 131.06372718264578 L 758.9362728173531 400.0 M 490.0 118.257238000867 L 771.7427619991319 400.0 M 490.0 105.45074881908823 L 784.5492511809106 400.0 M 490.0 92.64425963730946 L 797.3557403626893 400.0 M 490.0 79.83777045553069 L 810.162229544468 400.0 M 490.0 67.03128127375192 L 822.9687187262467 400.0 M 490.0 54.22479209197314 L 835.7752079080254 400.0 M 490.0 41.41830291019437 L 848.5816970898042 400.0 M 490.0 28.611813728415598 L 861.3881862715829 400.0 M 490.0 15.805324546636825 L 874.1946754533616 400.0 M 490.0 2.998835364858053 L 887.0011646351403 400.0 M 490.0 -9.80765381692072 L 899.807653816919 400.0 M 490.0 -22.614142998699492 L 912.6141429986977 400.0 M 490.0 -35.420632180478265 L 925.4206321804764 400.0 M 490.0 -48.22712136225704 L 938.2271213622552 400.0 M 490.0 -61.03361054403581 L 951.0336105440339 400.0 M 490.0 -73.84009972581458 L 963.8400997258126 400.0 M 490.0 -86.64658890759335 L 976.6465889075913 400.0 M 490.0 -99.45307808937213 L 989.45307808937 400.0 M 490.0 -112.2595672711509 L 1002.2595672711487 400.0 "/>
            </g>
        </pattern>
    </defs>
    <g>
        <g latexdraw:type="rectangle" id="id17">
            <rect x="250.5" y="180.5" width="589.0" height="369.0"
                latexdraw:borderPos="outer" stroke-width="1.0"
                stroke="#828282" fill="url(#pattern17)"/>
        </g>
        <g latexdraw:type="rectangle" id="id18">
            <rect x="291.0" y="221.0" width="508.0" height="288.0"
                latexdraw:borderPos="outer" stroke-width="2.0"
                stroke="black" fill="none" stroke-dasharray="8.0, 8.0"/>
        </g>
        <g latexdraw:type="rectangle" id="id19">
            <rect x="491.0" y="331.0" width="108.0" height="68.0"
                latexdraw:borderPos="outer" stroke-width="2.0"
                stroke="black" fill="url(#pattern19)"/>
        </g>
        <g latexdraw:type="rectangle" id="id20">
            <rect x="471.0" y="311.0" width="148.0" height="108.0"
                latexdraw:borderPos="outer" stroke-width="2.0"
                stroke="black" fill="none" stroke-dasharray="8.0, 8.0"/>
        </g>
        <g latexdraw:type="circle" id="id21">
            <circle cx="650.0" cy="280.0" r="9.0"
                latexdraw:borderPos="outer" stroke-width="2.0"
                stroke="black" fill="none"/>
        </g>
        <g latexdraw:type="circle" id="id23">
            <circle cx="720.0" cy="280.0" r="9.0"
                latexdraw:borderPos="outer" stroke-width="2.0"
                stroke="black" fill="none"/>
        </g>
        <g latexdraw:type="circle" id="id25">
            <circle cx="650.0" cy="420.0" r="9.0"
                latexdraw:borderPos="outer" stroke-width="2.0"
                stroke="black" fill="none"/>
        </g>
        <g latexdraw:type="circle" id="id27">
            <circle cx="680.0" cy="390.0" r="9.0"
                latexdraw:borderPos="outer" stroke-width="2.0"
                stroke="black" fill="none"/>
        </g>
        <g latexdraw:type="circle" id="id29">
            <circle cx="710.0" cy="350.0" r="9.0"
                latexdraw:borderPos="outer" stroke-width="2.0"
                stroke="black" fill="none"/>
        </g>
        <g latexdraw:type="circle" id="id31">
            <circle cx="790.0" cy="330.0" r="9.0"
                latexdraw:borderPos="outer" stroke-width="2.0"
                stroke="black" fill="none"/>
        </g>
        <g latexdraw:type="circle" id="id33">
            <circle cx="770.0" cy="270.0" r="9.0"
                latexdraw:borderPos="outer" stroke-width="2.0"
                stroke="black" fill="none"/>
        </g>
        <g latexdraw:type="circle" id="id35">
            <circle cx="810.0" cy="260.0" r="9.0"
                latexdraw:borderPos="outer" stroke-width="2.0"
                stroke="black" fill="none"/>
        </g>
        <g latexdraw:type="circle" id="id37">
            <circle cx="820.0" cy="460.0" r="9.0"
                latexdraw:borderPos="outer" stroke-width="2.0"
                stroke="black" fill="none"/>
        </g>
        <g latexdraw:type="circle" id="id39">
            <circle cx="860.0" cy="420.0" r="9.0"
                latexdraw:borderPos="outer" stroke-width="2.0"
                stroke="black" fill="none"/>
        </g>
        <g latexdraw:type="circle" id="id41">
            <circle cx="870.0" cy="360.0" r="9.0"
                latexdraw:borderPos="outer" stroke-width="2.0"
                stroke="black" fill="none"/>
        </g>
        <g latexdraw:type="circle" id="id43">
            <circle cx="830.0" cy="520.0" r="9.0"
                latexdraw:borderPos="outer" stroke-width="2.0"
                stroke="black" fill="none"/>
        </g>
        <g latexdraw:type="circle" id="id45">
            <circle cx="760.0" cy="500.0" r="9.0"
                latexdraw:borderPos="outer" stroke-width="2.0"
                stroke="black" fill="none"/>
        </g>
        <g latexdraw:type="circle" id="id47">
            <circle cx="640.0" cy="490.0" r="9.0"
                latexdraw:borderPos="outer" stroke-width="2.0"
                stroke="black" fill="none"/>
        </g>
        <g latexdraw:type="circle" id="id49">
            <circle cx="680.0" cy="450.0" r="9.0"
                latexdraw:borderPos="outer" stroke-width="2.0"
                stroke="black" fill="none"/>
        </g>
        <g latexdraw:type="circle" id="id51">
            <circle cx="520.0" cy="410.0" r="9.0"
                latexdraw:borderPos="outer" stroke-width="2.0"
                stroke="black" fill="none"/>
        </g>
        <g latexdraw:type="circle" id="id53">
            <circle cx="610.0" cy="450.0" r="9.0"
                latexdraw:borderPos="outer" stroke-width="2.0"
                stroke="black" fill="none"/>
        </g>
        <g latexdraw:type="circle" id="id55">
            <circle cx="700.0" cy="490.0" r="9.0"
                latexdraw:borderPos="outer" stroke-width="2.0"
                stroke="black" fill="none"/>
        </g>
        <g latexdraw:type="circle" id="id57">
            <circle cx="730.0" cy="450.0" r="9.0"
                latexdraw:borderPos="outer" stroke-width="2.0"
                stroke="black" fill="none"/>
        </g>
        <g latexdraw:type="circle" id="id59">
            <circle cx="570.0" cy="270.0" r="9.0"
                latexdraw:borderPos="outer" stroke-width="2.0"
                stroke="black" fill="none"/>
        </g>
        <g latexdraw:type="circle" id="id61">
            <circle cx="640.0" cy="340.0" r="9.0"
                latexdraw:borderPos="outer" stroke-width="2.0"
                stroke="black" fill="none"/>
        </g>
        <g latexdraw:type="circle" id="id63">
            <circle cx="680.0" cy="230.0" r="9.0"
                latexdraw:borderPos="outer" stroke-width="2.0"
                stroke="black" fill="none"/>
        </g>
        <g latexdraw:type="circle" id="id65">
            <circle cx="780.0" cy="210.0" r="9.0"
                latexdraw:borderPos="outer" stroke-width="2.0"
                stroke="black" fill="none"/>
        </g>
        <g latexdraw:type="circle" id="id67">
            <circle cx="860.0" cy="270.0" r="9.0"
                latexdraw:borderPos="outer" stroke-width="2.0"
                stroke="black" fill="none"/>
        </g>
        <g latexdraw:type="circle" id="id69">
            <circle cx="870.0" cy="210.0" r="9.0"
                latexdraw:borderPos="outer" stroke-width="2.0"
                stroke="black" fill="none"/>
        </g>
        <g latexdraw:type="circle" id="id71">
            <circle cx="570.0" cy="430.0" r="9.0"
                latexdraw:borderPos="outer" stroke-width="2.0"
                stroke="black" fill="none"/>
        </g>
        <g latexdraw:type="circle" id="id73">
            <circle cx="580.0" cy="310.0" r="9.0"
                latexdraw:borderPos="outer" stroke-width="2.0"
                stroke="black" fill="none"/>
        </g>
        <g latexdraw:type="circle" id="id75">
            <circle cx="620.0" cy="270.0" r="9.0"
                latexdraw:borderPos="outer" stroke-width="2.0"
                stroke="black" fill="none"/>
        </g>
        <g latexdraw:type="circle" id="id77">
            <circle cx="740.0" cy="390.0" r="9.0"
                latexdraw:borderPos="outer" stroke-width="2.0"
                stroke="black" fill="none"/>
        </g>
        <g latexdraw:type="circle" id="id79">
            <circle cx="900.0" cy="500.0" r="9.0"
                latexdraw:borderPos="outer" stroke-width="2.0"
                stroke="black" fill="none"/>
        </g>
        <g latexdraw:type="circle" id="id81">
            <circle cx="910.0" cy="440.0" r="9.0"
                latexdraw:borderPos="outer" stroke-width="2.0"
                stroke="black" fill="none"/>
        </g>
        <g latexdraw:type="circle" id="id83">
            <circle cx="900.0" cy="350.0" r="9.0"
                latexdraw:borderPos="outer" stroke-width="2.0"
                stroke="black" fill="none"/>
        </g>
        <g latexdraw:type="circle" id="id85">
            <circle cx="910.0" cy="290.0" r="9.0"
                latexdraw:borderPos="outer" stroke-width="2.0"
                stroke="black" fill="none"/>
        </g>
        <g latexdraw:type="circle" id="id87">
            <circle cx="760.0" cy="420.0" r="9.0"
                latexdraw:borderPos="outer" stroke-width="2.0"
                stroke="black" fill="none"/>
        </g>
        <g latexdraw:type="circle" id="id89">
            <circle cx="790.0" cy="380.0" r="9.0"
                latexdraw:borderPos="outer" stroke-width="2.0"
                stroke="black" fill="none"/>
        </g>
        <g latexdraw:type="circle" id="id91">
            <circle cx="820.0" cy="420.0" r="9.0"
                latexdraw:borderPos="outer" stroke-width="2.0"
                stroke="black" fill="none"/>
        </g>
        <g latexdraw:type="circle" id="id93">
            <circle cx="520.0" cy="310.0" r="9.0"
                latexdraw:borderPos="outer" stroke-width="2.0"
                stroke="black" fill="none"/>
        </g>
        <g latexdraw:type="circle" id="id95">
            <circle cx="690.0" cy="290.0" r="9.0"
                latexdraw:borderPos="outer" stroke-width="2.0"
                stroke="black" fill="none"/>
        </g>
        <g latexdraw:type="circle" id="id97">
            <circle cx="720.0" cy="250.0" r="9.0"
                latexdraw:borderPos="outer" stroke-width="2.0"
                stroke="black" fill="none"/>
        </g>
        <g latexdraw:type="circle" id="id99">
            <circle cx="750.0" cy="290.0" r="9.0"
                latexdraw:borderPos="outer" stroke-width="2.0"
                stroke="black" fill="none"/>
        </g>
    </g>
    <metadata>
        <latexdraw:metadata>
            <latexdraw:displayBorders>false</latexdraw:displayBorders>
            <latexdraw:autoAdjust>true</latexdraw:autoAdjust>
            <latexdraw:ppc>50</latexdraw:ppc>
            <latexdraw:zoom>1.0</latexdraw:zoom>
            <latexdraw:unit>cm</latexdraw:unit>
            <latexdraw:classicGrid>false</latexdraw:classicGrid>
            <latexdraw:gridGap>10</latexdraw:gridGap>
            <latexdraw:code>0</latexdraw:code>
            <latexdraw:displayGrid>true</latexdraw:displayGrid>
            <latexdraw:magneticGrid>true</latexdraw:magneticGrid>
            <latexdraw:autoUpdate>true</latexdraw:autoUpdate>
            <latexdraw:version>2.0.8</latexdraw:version>
            <latexdraw:size>
                <latexdraw:width>1861</latexdraw:width>
                <latexdraw:height>998</latexdraw:height>
            </latexdraw:size>
            <latexdraw:position>
                <latexdraw:x>80</latexdraw:x>
                <latexdraw:y>59</latexdraw:y>
            </latexdraw:position>
            <latexdraw:dividerPosition>0.6356797420741537</latexdraw:dividerPosition>
            <latexdraw:displayCodePanel>true</latexdraw:displayCodePanel>
            <latexdraw:displayXScale>true</latexdraw:displayXScale>
            <latexdraw:displayYScale>true</latexdraw:displayYScale>
            <latexdraw:delimitorOpacity>130</latexdraw:delimitorOpacity>
        </latexdraw:metadata>
    </metadata>
</svg>
